<svg width="600" height="600" viewBox="0 0 600 600" fill="none" xmlns="http://www.w3.org/2000/svg">
<rect width="600" height="600" rx="100" fill="white"/>
<path d="M368.171 296.131C368.171 347.668 327.961 389.447 278.36 389.447C245.989 389.447 217.618 371.653 201.814 344.966C197.645 364.108 181.65 378.672 162.107 380.162C187.693 418.303 230.221 443.262 278.36 443.262C356.565 443.262 419.964 377.389 419.964 296.131C419.964 214.873 356.565 149 278.36 149C200.233 149 136.884 214.739 136.755 295.884C143.239 292.036 150.766 289.833 158.795 289.833C170.343 289.833 180.855 294.39 188.714 301.847C188.604 299.956 188.548 298.05 188.548 296.131C188.548 244.594 228.758 202.814 278.36 202.814C327.961 202.814 368.171 244.594 368.171 296.131Z" fill="url(#paint0_linear_5919_16461)"/>
<path fill-rule="evenodd" clip-rule="evenodd" d="M457.434 448.995C508.607 448.687 550 405.488 550 352.245C550 298.811 508.31 255.494 456.883 255.494C414.442 255.494 374.235 292.706 363.766 324.765C353.297 356.825 332.038 374.611 309.217 383.732C309.26 383.863 309.303 383.994 309.348 384.125C286.159 391.621 272.782 391.017 249.251 383.732H158.797V448.996H456.883L457.434 448.995ZM499.309 352.245C499.309 376.591 480.314 396.327 456.883 396.327C433.451 396.327 414.456 376.591 414.456 352.245C414.456 327.899 433.451 308.163 456.883 308.163C480.314 308.163 499.309 327.899 499.309 352.245Z" fill="url(#paint1_linear_5919_16461)"/>
<path d="M159.19 221.82C137.594 221.82 116.484 228.482 98.5274 240.963C80.5712 253.445 66.576 271.185 58.3117 291.941C50.0473 312.697 47.885 335.536 52.0981 357.571C56.3112 379.605 66.7106 399.845 81.9811 415.731C97.2516 431.617 116.707 442.435 137.888 446.818C159.069 451.201 181.024 448.951 200.975 440.354C220.927 431.757 237.98 417.197 249.978 398.518C261.976 379.838 268.38 357.876 268.38 335.41C268.38 320.493 265.556 305.722 260.069 291.941C254.581 278.159 246.538 265.637 236.399 255.09C226.26 244.542 214.223 236.175 200.975 230.466C187.728 224.758 173.529 221.82 159.19 221.82ZM159.19 379.388C150.829 379.388 142.656 376.809 135.704 371.977C128.752 367.144 123.333 360.276 120.134 352.24C116.934 344.204 116.097 335.361 117.728 326.83C119.359 318.299 123.385 310.463 129.298 304.313C135.21 298.162 142.742 293.974 150.943 292.277C159.143 290.58 167.643 291.451 175.368 294.78C183.093 298.108 189.695 303.745 194.34 310.977C198.985 318.209 201.465 326.712 201.465 335.41C201.472 341.19 200.383 346.915 198.262 352.257C196.141 357.599 193.028 362.454 189.102 366.543C185.175 370.633 180.513 373.877 175.38 376.091C170.248 378.304 164.746 379.444 159.19 379.444V379.388Z" fill="#6763F7"/>
<path d="M454.818 197.024C467.232 197.024 477.296 186.555 477.296 173.64C477.296 160.725 467.232 150.255 454.818 150.255C442.403 150.255 432.339 160.725 432.339 173.64C432.339 186.555 442.403 197.024 454.818 197.024Z" fill="#FFAD4D"/>
<defs>
<linearGradient id="paint0_linear_5919_16461" x1="232.627" y1="107.208" x2="415.377" y2="289.71" gradientUnits="userSpaceOnUse">
<stop stop-color="#6763F7"/>
<stop offset="1" stop-color="#4A40C6"/>
</linearGradient>
<linearGradient id="paint1_linear_5919_16461" x1="297.183" y1="256.318" x2="297.183" y2="449.001" gradientUnits="userSpaceOnUse">
<stop stop-color="#6864F9"/>
<stop offset="1" stop-color="#493FC5"/>
</linearGradient>
</defs>
</svg>
